<svg width="1592" height="851" viewBox="0 0 1592 851" fill="none" xmlns="http://www.w3.org/2000/svg">
<rect x="11.5" y="360.5" width="520" height="451" stroke="black" stroke-width="23"/>
<mask id="path-2-inside-1_10_65" fill="white">
<path d="M418.066 353.988C414.52 312.319 417.656 270.118 427.289 229.872C436.922 189.625 452.857 152.148 474.156 119.65C495.454 87.1519 521.683 60.2899 551.299 40.6477C580.915 21.0054 613.316 8.9804 646.595 5.28139C679.873 1.58238 713.354 6.28427 745.065 19.1099C776.775 31.9355 806.073 52.6253 831.232 79.9597C856.391 107.294 876.901 140.72 891.554 178.267C906.206 215.814 914.705 256.722 916.549 298.58L889.842 300.686C888.195 263.304 880.605 226.771 867.52 193.239C854.434 159.707 836.117 129.855 813.648 105.443C791.18 81.032 765.015 62.5545 736.695 51.1004C708.375 39.6462 678.474 35.4471 648.754 38.7506C619.035 42.054 590.097 52.7932 563.649 70.3351C537.2 87.877 513.775 111.867 494.754 140.89C475.734 169.913 461.502 203.382 452.9 239.325C444.297 275.268 441.496 312.957 444.663 350.17L418.066 353.988Z"/>
</mask>
<path d="M418.066 353.988C414.52 312.319 417.656 270.118 427.289 229.872C436.922 189.625 452.857 152.148 474.156 119.65C495.454 87.1519 521.683 60.2899 551.299 40.6477C580.915 21.0054 613.316 8.9804 646.595 5.28139C679.873 1.58238 713.354 6.28427 745.065 19.1099C776.775 31.9355 806.073 52.6253 831.232 79.9597C856.391 107.294 876.901 140.72 891.554 178.267C906.206 215.814 914.705 256.722 916.549 298.58L889.842 300.686C888.195 263.304 880.605 226.771 867.52 193.239C854.434 159.707 836.117 129.855 813.648 105.443C791.18 81.032 765.015 62.5545 736.695 51.1004C708.375 39.6462 678.474 35.4471 648.754 38.7506C619.035 42.054 590.097 52.7932 563.649 70.3351C537.2 87.877 513.775 111.867 494.754 140.89C475.734 169.913 461.502 203.382 452.9 239.325C444.297 275.268 441.496 312.957 444.663 350.17L418.066 353.988Z" fill="#D9D9D9" stroke="black" stroke-width="46" mask="url(#path-2-inside-1_10_65)"/>
<path d="M68 349L68 809" stroke="black" stroke-width="23"/>
<line x1="131.5" y1="356" x2="131.5" y2="816" stroke="black" stroke-width="23"/>
<line x1="197.5" y1="356" x2="197.5" y2="816" stroke="black" stroke-width="23"/>
<line x1="257.5" y1="356" x2="257.5" y2="816" stroke="black" stroke-width="23"/>
<line x1="479.5" y1="350" x2="479.5" y2="810" stroke="black" stroke-width="23"/>
<line x1="319.5" y1="363" x2="319.5" y2="823" stroke="black" stroke-width="23"/>
<line x1="423.5" y1="363" x2="423.5" y2="823" stroke="black" stroke-width="23"/>
<line x1="369.5" y1="363" x2="369.5" y2="823" stroke="black" stroke-width="23"/>
<path d="M620 454.6C623.867 454.6 627.6 454.533 631.2 454.4C634.933 454.133 638.8 453.933 642.8 453.8C643.333 454.333 643.533 455.267 643.4 456.6C643.4 457.933 643.2 458.867 642.8 459.4C642 459.4 640.533 459.533 638.4 459.8C636.267 459.933 634.267 460.2 632.4 460.6C630.533 461 629.467 461.6 629.2 462.4C628.8 463.733 628.533 465.467 628.4 467.6C628.4 469.733 628.4 472.067 628.4 474.6C628.4 475 628.4 475.4 628.4 475.8C628.4 476.2 628.4 476.6 628.4 477V560.4C628.4 560.8 628.4 561.2 628.4 561.6C628.4 562 628.4 562.4 628.4 562.8C628.4 565.333 628.4 567.667 628.4 569.8C628.533 571.8 628.8 573.467 629.2 574.8C629.467 575.467 630.533 576.067 632.4 576.6C634.267 577.133 636.267 577.533 638.4 577.8C640.533 577.933 642 578 642.8 578C643.2 578.533 643.4 579.467 643.4 580.8C643.533 582.133 643.333 583.067 642.8 583.6C638.8 583.333 634.933 583.133 631.2 583C627.6 582.733 623.867 582.6 620 582.6C616.267 582.6 612.467 582.733 608.6 583C604.733 583.133 600.8 583.333 596.8 583.6C596.267 583.067 596 582.133 596 580.8C596.133 579.467 596.4 578.533 596.8 578C597.6 578 599.067 577.933 601.2 577.8C603.333 577.533 605.333 577.133 607.2 576.6C609.2 576.067 610.267 575.467 610.4 574.8C610.933 573.2 611.2 571.133 611.2 568.6C611.333 566.067 611.4 563.333 611.4 560.4V477C611.4 474.067 611.333 471.333 611.2 468.8C611.2 466.133 610.933 464 610.4 462.4C610.267 461.6 609.2 461 607.2 460.6C605.333 460.2 603.333 459.933 601.2 459.8C599.067 459.533 597.6 459.4 596.8 459.4C596.4 458.867 596.133 457.933 596 456.6C596 455.267 596.267 454.333 596.8 453.8C600.8 453.933 604.733 454.133 608.6 454.4C612.467 454.533 616.267 454.6 620 454.6ZM724.281 497.4C731.348 497.4 736.681 498.867 740.281 501.8C743.881 504.733 746.281 509.267 747.481 515.4C748.815 521.533 749.481 529.333 749.481 538.8V560.4C749.481 563.333 749.481 566.067 749.481 568.6C749.615 571.133 749.948 573.2 750.481 574.8C750.748 575.467 751.681 576.067 753.281 576.6C755.015 577.133 756.815 577.533 758.681 577.8C760.548 577.933 761.881 578 762.681 578C763.081 578.533 763.281 579.467 763.281 580.8C763.415 582.133 763.215 583.067 762.681 583.6C758.681 583.333 755.148 583.133 752.081 583C749.148 582.733 745.748 582.6 741.881 582.6C738.148 582.6 734.748 582.733 731.681 583C728.615 583.133 725.081 583.333 721.081 583.6C720.548 583.067 720.281 582.133 720.281 580.8C720.415 579.467 720.681 578.533 721.081 578C721.881 578 723.215 577.933 725.081 577.8C727.081 577.533 728.948 577.133 730.681 576.6C732.415 576.067 733.348 575.467 733.481 574.8C734.015 573.2 734.281 571.133 734.281 568.6C734.415 566.067 734.481 563.333 734.481 560.4V540.8C734.481 532.667 733.948 526.333 732.881 521.8C731.815 517.133 729.881 513.8 727.081 511.8C724.281 509.8 720.348 508.8 715.281 508.8C712.881 508.8 710.215 509.6 707.281 511.2C704.481 512.667 702.015 514.267 699.881 516C697.748 517.733 696.681 518.933 696.681 519.6V560.4C696.681 563.333 696.681 566.067 696.681 568.6C696.815 571.133 697.148 573.2 697.681 574.8C697.948 575.467 698.881 576.067 700.481 576.6C702.215 577.133 704.015 577.533 705.881 577.8C707.748 577.933 709.081 578 709.881 578C710.281 578.533 710.481 579.467 710.481 580.8C710.615 582.133 710.415 583.067 709.881 583.6C705.881 583.333 702.348 583.133 699.281 583C696.348 582.733 692.948 582.6 689.081 582.6C685.348 582.6 681.948 582.733 678.881 583C675.815 583.133 672.281 583.333 668.281 583.6C667.748 583.067 667.481 582.133 667.481 580.8C667.615 579.467 667.881 578.533 668.281 578C669.081 578 670.415 577.933 672.281 577.8C674.281 577.533 676.148 577.133 677.881 576.6C679.615 576.067 680.548 575.467 680.681 574.8C681.215 573.2 681.481 571.133 681.481 568.6C681.615 566.067 681.681 563.333 681.681 560.4V524.8C681.681 523.467 681.615 521.6 681.481 519.2C681.481 516.8 681.215 515 680.681 513.8C680.281 512.6 679.148 511.8 677.281 511.4C675.415 510.867 673.548 510.6 671.681 510.6C669.815 510.467 668.615 510.4 668.081 510.4C667.948 510.133 667.815 509.333 667.681 508C667.548 506.667 667.681 505.733 668.081 505.2C673.148 504.533 678.081 503.533 682.881 502.2C687.681 500.867 692.015 499.133 695.881 497C696.415 497 696.881 497.4 697.281 498.2C697.815 499 698.081 499.667 698.081 500.2C698.081 500.6 697.948 501.667 697.681 503.4C697.548 505 697.348 506.6 697.081 508.2C696.948 509.8 696.881 510.867 696.881 511.4C696.881 511.933 697.015 512.2 697.281 512.2C697.415 512.2 697.615 512.067 697.881 511.8C699.215 510.333 701.348 508.467 704.281 506.2C707.348 503.933 710.681 501.933 714.281 500.2C717.881 498.333 721.215 497.4 724.281 497.4ZM827.592 446.8C830.526 446.8 832.392 446.933 833.192 447.2C834.126 447.467 835.326 448.133 836.792 449.2C837.192 449.6 837.592 450.333 837.992 451.4C838.526 452.467 838.792 453.533 838.792 454.6C838.792 458.067 837.792 460.267 835.792 461.2C833.926 462 832.326 462.4 830.992 462.4C830.059 462.4 829.126 462.2 828.192 461.8C827.259 461.4 826.259 460.933 825.192 460.4C824.126 459.733 823.259 459.267 822.592 459C821.926 458.733 820.926 458.6 819.592 458.6C816.659 458.6 814.059 460.133 811.792 463.2C809.659 466.267 808.659 470.867 808.792 477V501.2H831.992C832.526 501.2 832.792 501.733 832.792 502.8C832.792 503.067 832.792 503.267 832.792 503.4C832.792 505.533 831.926 507.467 830.192 509.2H808.792V560.4C808.792 563.333 808.792 566.067 808.792 568.6C808.926 571.133 809.259 573.2 809.792 574.8C810.059 575.467 811.059 576.067 812.792 576.6C814.659 577.133 816.592 577.533 818.592 577.8C820.726 577.933 822.192 578 822.992 578C823.392 578.533 823.592 579.467 823.592 580.8C823.726 582.133 823.526 583.067 822.992 583.6C818.992 583.333 815.326 583.133 811.992 583C808.659 582.733 805.059 582.6 801.192 582.6C797.459 582.6 794.059 582.733 790.992 583C788.059 583.133 784.592 583.333 780.592 583.6C780.059 583.067 779.792 582.133 779.792 580.8C779.926 579.467 780.192 578.533 780.592 578C781.392 578 782.726 577.933 784.592 577.8C786.459 577.533 788.259 577.133 789.992 576.6C791.726 576.067 792.659 575.467 792.792 574.8C793.326 573.2 793.592 571.133 793.592 568.6C793.726 566.067 793.792 563.333 793.792 560.4V509.2H782.392C782.126 509.2 781.926 509 781.792 508.6C781.659 508.067 781.592 507.667 781.592 507.4C781.592 507.133 781.992 506.533 782.792 505.6C783.592 504.533 784.392 503.533 785.192 502.6C786.126 501.667 786.592 501.2 786.592 501.2H793.792V497.4C793.792 490.333 794.926 483.733 797.192 477.6C799.592 471.467 802.592 466.133 806.192 461.6C809.792 456.933 813.526 453.333 817.392 450.8C821.259 448.133 824.659 446.8 827.592 446.8ZM892.405 497.2C901.071 497.2 908.471 499.067 914.605 502.8C920.871 506.533 925.671 511.6 929.005 518C932.471 524.4 934.205 531.667 934.205 539.8C934.205 548.2 932.405 555.8 928.805 562.6C925.205 569.267 920.271 574.6 914.005 578.6C907.738 582.467 900.671 584.4 892.805 584.4C884.271 584.4 876.805 582.533 870.405 578.8C864.138 574.933 859.271 569.8 855.805 563.4C852.471 556.867 850.805 549.533 850.805 541.4C850.805 533 852.605 525.467 856.205 518.8C859.938 512.133 864.938 506.867 871.205 503C877.471 499.133 884.538 497.2 892.405 497.2ZM890.205 503.8C884.738 503.8 880.338 505.467 877.005 508.8C873.671 512 871.271 516.2 869.805 521.4C868.338 526.467 867.605 531.8 867.605 537.4C867.605 543.667 868.605 549.933 870.605 556.2C872.738 562.467 875.805 567.667 879.805 571.8C883.938 575.933 888.938 578 894.805 578C900.405 578 904.805 576.4 908.005 573.2C911.338 569.867 913.738 565.6 915.205 560.4C916.671 555.2 917.405 549.867 917.405 544.4C917.405 538 916.338 531.733 914.205 525.6C912.071 519.333 909.005 514.133 905.005 510C901.005 505.867 896.071 503.8 890.205 503.8ZM628.4 720.4C628.4 720.667 628.4 721.067 628.4 721.6C628.4 722.8 628.4 724.4 628.4 726.4C628.4 728.267 628.467 730 628.6 731.6C628.733 733.2 629 734.133 629.4 734.4C630.733 735.333 632.333 735.933 634.2 736.2C636.2 736.333 639.267 736.4 643.4 736.4H654.4C658.133 736.4 662.2 736 666.6 735.2C671.133 734.267 674.733 732.867 677.4 731C679.8 729.267 682 726.867 684 723.8C686.133 720.733 688 716.6 689.6 711.4C689.867 710.6 690.8 710.2 692.4 710.2C694.8 710.2 696.4 710.6 697.2 711.4C695.333 716.733 693.267 722.4 691 728.4C688.867 734.4 687.467 739.533 686.8 743.8C676.267 743.8 665.8 743.667 655.4 743.4C645 743.133 633.267 743 620.2 743C615.667 743 611.6 743.067 608 743.2C604.4 743.467 600.667 743.6 596.8 743.6C596.267 743.067 596 742.133 596 740.8C596.133 739.467 596.4 738.533 596.8 738C597.6 738 599.067 737.933 601.2 737.8C603.333 737.533 605.333 737.133 607.2 736.6C609.2 736.067 610.267 735.467 610.4 734.8C610.933 733.2 611.2 731.133 611.2 728.6C611.333 726.067 611.4 723.333 611.4 720.4V637C611.4 634.067 611.333 631.333 611.2 628.8C611.2 626.133 610.933 624 610.4 622.4C610.267 621.6 609.2 621 607.2 620.6C605.333 620.2 603.333 619.933 601.2 619.8C599.067 619.533 597.6 619.4 596.8 619.4C596.4 618.867 596.133 617.933 596 616.6C596 615.267 596.267 614.333 596.8 613.8C600.8 613.933 604.733 614.133 608.6 614.4C612.467 614.533 616.267 614.6 620 614.6C623.867 614.6 627.6 614.533 631.2 614.4C634.933 614.133 638.8 613.933 642.8 613.8C643.333 614.333 643.533 615.267 643.4 616.6C643.4 617.933 643.2 618.867 642.8 619.4C642 619.4 640.533 619.533 638.4 619.8C636.267 619.933 634.267 620.2 632.4 620.6C630.533 621 629.467 621.6 629.2 622.4C628.8 623.733 628.533 625.467 628.4 627.6C628.4 629.733 628.4 632.067 628.4 634.6C628.4 635 628.4 635.4 628.4 635.8C628.4 636.2 628.4 636.6 628.4 637V720.4ZM757.561 657.2C766.228 657.2 773.628 659.067 779.761 662.8C786.028 666.533 790.828 671.6 794.161 678C797.628 684.4 799.361 691.667 799.361 699.8C799.361 708.2 797.561 715.8 793.961 722.6C790.361 729.267 785.428 734.6 779.161 738.6C772.894 742.467 765.828 744.4 757.961 744.4C749.428 744.4 741.961 742.533 735.561 738.8C729.294 734.933 724.428 729.8 720.961 723.4C717.628 716.867 715.961 709.533 715.961 701.4C715.961 693 717.761 685.467 721.361 678.8C725.094 672.133 730.094 666.867 736.361 663C742.628 659.133 749.694 657.2 757.561 657.2ZM755.361 663.8C749.894 663.8 745.494 665.467 742.161 668.8C738.828 672 736.428 676.2 734.961 681.4C733.494 686.467 732.761 691.8 732.761 697.4C732.761 703.667 733.761 709.933 735.761 716.2C737.894 722.467 740.961 727.667 744.961 731.8C749.094 735.933 754.094 738 759.961 738C765.561 738 769.961 736.4 773.161 733.2C776.494 729.867 778.894 725.6 780.361 720.4C781.828 715.2 782.561 709.867 782.561 704.4C782.561 698 781.494 691.733 779.361 685.6C777.228 679.333 774.161 674.133 770.161 670C766.161 665.867 761.228 663.8 755.361 663.8ZM891.975 667.6C891.975 671.067 891.175 673.533 889.575 675C887.975 676.333 886.308 677 884.575 677C882.442 677 880.442 676.067 878.575 674.2C876.708 672.333 874.908 670.867 873.175 669.8C871.042 668.333 869.308 667.333 867.975 666.8C866.642 666.267 864.708 666 862.175 666C858.708 666 855.242 667.333 851.775 670C848.442 672.533 845.642 676.2 843.375 681C841.242 685.8 840.175 691.667 840.175 698.6C840.175 709.933 843.242 718.267 849.375 723.6C855.508 728.933 862.975 731.6 871.775 731.6C877.242 731.6 881.708 730.333 885.175 727.8C888.775 725.267 891.242 723.267 892.575 721.8C892.708 721.8 892.975 722.067 893.375 722.6C893.908 723 894.175 723.6 894.175 724.4C894.175 725.467 893.775 726.667 892.975 728C891.775 729.867 889.908 732.133 887.375 734.8C884.842 737.333 881.642 739.6 877.775 741.6C873.908 743.6 869.442 744.6 864.375 744.6C856.508 744.6 849.575 742.733 843.575 739C837.708 735.267 833.108 730.4 829.775 724.4C826.575 718.4 824.975 712 824.975 705.2C824.975 698 826.442 691.533 829.375 685.8C832.442 679.933 836.308 674.867 840.975 670.6C845.775 666.333 850.908 663.067 856.375 660.8C861.975 658.533 867.308 657.4 872.375 657.4C879.575 657.4 885.442 659 889.975 662.2C890.375 662.6 890.775 663.333 891.175 664.4C891.708 665.467 891.975 666.533 891.975 667.6ZM942.392 720.4C942.392 723.333 942.392 726.067 942.392 728.6C942.526 731.133 942.859 733.2 943.392 734.8C943.659 735.467 944.592 736.067 946.192 736.6C947.926 737.133 949.726 737.533 951.592 737.8C953.592 737.933 954.992 738 955.792 738C956.192 738.533 956.392 739.467 956.392 740.8C956.526 742.133 956.326 743.067 955.792 743.6C951.792 743.333 948.259 743.133 945.192 743C942.126 742.733 938.659 742.6 934.792 742.6C931.059 742.6 927.659 742.733 924.592 743C921.659 743.133 918.192 743.333 914.192 743.6C913.659 743.067 913.392 742.133 913.392 740.8C913.526 739.467 913.792 738.533 914.192 738C914.992 738 916.326 737.933 918.192 737.8C920.059 737.533 921.859 737.133 923.592 736.6C925.326 736.067 926.259 735.467 926.392 734.8C926.926 733.2 927.192 731.133 927.192 728.6C927.326 726.067 927.392 723.333 927.392 720.4V634C927.392 632.533 927.326 630.8 927.192 628.8C927.192 626.667 926.926 625 926.392 623.8C925.859 622.333 924.392 621.4 921.992 621C919.726 620.6 917.259 620.4 914.592 620.4C914.459 620.4 914.326 619.6 914.192 618C914.192 616.267 914.392 615.333 914.792 615.2C919.726 614.667 924.526 613.733 929.192 612.4C933.859 610.933 938.259 609.267 942.392 607.4C942.926 607.4 943.392 607.8 943.792 608.6C944.326 609.267 944.592 609.933 944.592 610.6C944.592 610.6 944.192 612.067 943.392 615C942.726 617.933 942.392 622.133 942.392 627.6V697.2C944.126 696.533 946.392 695.067 949.192 692.8C952.126 690.533 955.259 688 958.592 685.2C963.659 680.933 967.859 677.4 971.192 674.6C974.659 671.8 976.392 669.933 976.392 669C976.392 667.933 975.726 667.2 974.392 666.8C973.192 666.4 971.859 666.133 970.392 666C968.926 665.733 967.859 665.6 967.192 665.6C966.659 664.933 966.392 663.867 966.392 662.4C966.526 660.933 966.859 660.133 967.392 660C970.192 660.267 973.259 660.533 976.592 660.8C979.926 660.933 983.126 661 986.192 661C992.992 661 998.726 660.667 1003.39 660C1003.79 660.533 1003.93 661.533 1003.79 663C1003.79 664.333 1003.66 665.2 1003.39 665.6C1002.06 665.6 999.726 666 996.392 666.8C993.192 667.6 990.526 668.733 988.392 670.2C987.859 670.6 986.459 671.6 984.192 673.2C981.926 674.8 979.192 676.8 975.992 679.2C972.926 681.6 969.659 684.133 966.192 686.8C962.859 689.467 959.726 692 956.792 694.4C961.726 699.6 966.592 704.933 971.392 710.4C976.192 715.733 980.459 720.467 984.192 724.6C987.926 728.6 990.526 731.267 991.992 732.6C994.526 734.733 997.459 736.2 1000.79 737C1004.26 737.8 1007.26 738.133 1009.79 738C1010.06 738.267 1010.19 739 1010.19 740.2C1010.33 741.267 1010.26 742.067 1009.99 742.6C1009.33 742.867 1007.73 743.133 1005.19 743.4C1002.66 743.667 1000.06 743.8 997.392 743.8C991.659 743.8 986.592 742.8 982.192 740.8C977.792 738.667 974.859 736.8 973.392 735.2C973.392 735.2 972.459 734.267 970.592 732.4C968.859 730.4 966.526 727.867 963.592 724.8C960.659 721.6 957.592 718.267 954.392 714.8C951.192 711.333 948.192 708.067 945.392 705C944.992 704.467 944.392 704.067 943.592 703.8C942.792 703.4 942.392 703.2 942.392 703.2V720.4ZM1033.98 694.6C1033.84 702.867 1035.24 709.8 1038.18 715.4C1041.11 721 1045.04 725.2 1049.98 728C1054.91 730.667 1060.24 732 1065.98 732C1069.58 732 1072.84 731.4 1075.78 730.2C1078.71 728.867 1081.18 727.4 1083.18 725.8C1085.18 724.067 1086.58 722.733 1087.38 721.8C1087.51 721.8 1087.78 722.067 1088.18 722.6C1088.71 723 1088.98 723.6 1088.98 724.4C1088.98 725.467 1088.58 726.667 1087.78 728C1086.58 729.867 1084.71 732.133 1082.18 734.8C1079.64 737.333 1076.44 739.6 1072.58 741.6C1068.71 743.6 1064.24 744.6 1059.18 744.6C1051.58 744.6 1044.84 742.8 1038.98 739.2C1033.11 735.6 1028.51 730.733 1025.18 724.6C1021.84 718.467 1020.18 711.6 1020.18 704C1020.18 697.467 1021.31 691.4 1023.58 685.8C1025.98 680.067 1029.04 675.133 1032.78 671C1036.64 666.733 1040.84 663.4 1045.38 661C1049.91 658.6 1054.31 657.4 1058.58 657.4C1064.44 657.4 1069.24 658.4 1072.98 660.4C1076.84 662.4 1079.84 664.867 1081.98 667.8C1084.24 670.733 1085.78 673.667 1086.58 676.6C1087.51 679.533 1087.98 682 1087.98 684C1087.98 686.8 1087.64 689 1086.98 690.6C1086.31 692.2 1085.04 693.067 1083.18 693.2C1081.98 693.333 1079.58 693.467 1075.98 693.6C1072.51 693.6 1068.51 693.667 1063.98 693.8C1059.44 693.933 1054.98 694.067 1050.58 694.2C1046.18 694.333 1042.44 694.467 1039.38 694.6C1036.31 694.6 1034.51 694.6 1033.98 694.6ZM1034.98 687.4H1066.78C1067.98 687.4 1068.98 687.067 1069.78 686.4C1070.71 685.733 1071.24 684.533 1071.38 682.8C1071.51 681.2 1071.04 678.933 1069.98 676C1068.91 673.067 1067.18 670.4 1064.78 668C1062.51 665.6 1059.38 664.4 1055.38 664.4C1051.24 664.4 1047.84 665.6 1045.18 668C1042.51 670.267 1040.38 672.933 1038.77 676C1037.31 678.933 1036.24 681.6 1035.58 684C1035.04 686.267 1034.84 687.4 1034.98 687.4ZM1165.36 657.6C1167.9 657.6 1170.3 658.2 1172.56 659.4C1174.83 660.467 1176.43 661.8 1177.36 663.4C1177.63 663.933 1177.83 664.667 1177.96 665.6C1178.1 666.533 1178.16 667.533 1178.16 668.6C1178.16 672.2 1177.3 674.8 1175.56 676.4C1173.96 678 1172.63 678.8 1171.56 678.8C1170.23 678.8 1168.96 678.333 1167.76 677.4C1166.56 676.467 1165.43 675.667 1164.36 675C1163.43 674.333 1162.43 673.8 1161.36 673.4C1160.43 672.867 1159.03 672.6 1157.16 672.6C1154.36 672.6 1151.76 673.8 1149.36 676.2C1147.1 678.467 1145.23 681 1143.76 683.8C1142.3 686.6 1141.56 688.733 1141.56 690.2V720.4C1141.56 723.333 1141.56 726.067 1141.56 728.6C1141.7 731.133 1142.03 733.2 1142.56 734.8C1142.83 735.467 1144.16 736.067 1146.56 736.6C1148.96 737.133 1151.5 737.533 1154.16 737.8C1156.83 737.933 1158.56 738 1159.36 738C1159.76 738.533 1159.96 739.467 1159.96 740.8C1160.1 742.133 1159.9 743.067 1159.36 743.6C1155.36 743.333 1151.3 743.133 1147.16 743C1143.03 742.733 1139.03 742.6 1135.16 742.6C1131.43 742.6 1127.83 742.733 1124.36 743C1120.9 743.133 1117.16 743.333 1113.16 743.6C1112.63 743.067 1112.36 742.133 1112.36 740.8C1112.5 739.467 1112.76 738.533 1113.16 738C1113.96 738 1115.3 737.933 1117.16 737.8C1119.16 737.533 1121.03 737.133 1122.76 736.6C1124.5 736.067 1125.43 735.467 1125.56 734.8C1126.1 733.2 1126.36 731.133 1126.36 728.6C1126.5 726.067 1126.56 723.333 1126.56 720.4V684C1126.56 682.667 1126.5 680.933 1126.36 678.8C1126.36 676.667 1126.1 675 1125.56 673.8C1125.16 672.6 1124.03 671.8 1122.16 671.4C1120.3 670.867 1118.43 670.6 1116.56 670.6C1114.7 670.467 1113.5 670.4 1112.96 670.4C1112.83 670.133 1112.7 669.333 1112.56 668C1112.43 666.667 1112.56 665.733 1112.96 665.2C1118.03 664.533 1122.96 663.533 1127.76 662.2C1132.56 660.867 1136.9 659.133 1140.76 657C1141.3 657 1141.76 657.4 1142.16 658.2C1142.7 659 1142.96 659.667 1142.96 660.2C1142.96 660.6 1142.83 662.133 1142.56 664.8C1142.3 667.467 1142.03 670.2 1141.76 673C1141.63 675.667 1141.56 677.4 1141.56 678.2C1141.56 678.6 1141.63 678.8 1141.76 678.8C1142.03 678.8 1142.23 678.733 1142.36 678.6C1143.7 675.8 1145.56 672.8 1147.96 669.6C1150.5 666.267 1153.3 663.467 1156.36 661.2C1159.43 658.8 1162.43 657.6 1165.36 657.6Z" fill="black"/>
</svg>
