<svg width="1592" height="851" viewBox="0 0 1592 851" fill="none" xmlns="http://www.w3.org/2000/svg">
<rect x="11.5" y="360.5" width="520" height="451" stroke="white" stroke-width="23"/>
<mask id="path-2-inside-1_31_2" fill="white">
<path d="M418.066 353.988C414.52 312.319 417.656 270.118 427.289 229.872C436.922 189.625 452.857 152.148 474.156 119.65C495.454 87.1519 521.683 60.2899 551.299 40.6477C580.915 21.0054 613.316 8.9804 646.595 5.28139C679.873 1.58238 713.354 6.28427 745.065 19.1099C776.775 31.9355 806.073 52.6253 831.232 79.9597C856.391 107.294 876.901 140.72 891.554 178.267C906.206 215.814 914.705 256.722 916.549 298.58L889.842 300.686C888.195 263.304 880.605 226.771 867.52 193.239C854.434 159.707 836.117 129.855 813.648 105.443C791.18 81.032 765.015 62.5545 736.695 51.1004C708.375 39.6462 678.474 35.4471 648.754 38.7506C619.035 42.054 590.097 52.7932 563.649 70.3351C537.2 87.877 513.775 111.867 494.754 140.89C475.734 169.913 461.502 203.382 452.9 239.325C444.297 275.268 441.496 312.957 444.663 350.17L418.066 353.988Z"/>
</mask>
<path d="M418.066 353.988C414.52 312.319 417.656 270.118 427.289 229.872C436.922 189.625 452.857 152.148 474.156 119.65C495.454 87.1519 521.683 60.2899 551.299 40.6477C580.915 21.0054 613.316 8.9804 646.595 5.28139C679.873 1.58238 713.354 6.28427 745.065 19.1099C776.775 31.9355 806.073 52.6253 831.232 79.9597C856.391 107.294 876.901 140.72 891.554 178.267C906.206 215.814 914.705 256.722 916.549 298.58L889.842 300.686C888.195 263.304 880.605 226.771 867.52 193.239C854.434 159.707 836.117 129.855 813.648 105.443C791.18 81.032 765.015 62.5545 736.695 51.1004C708.375 39.6462 678.474 35.4471 648.754 38.7506C619.035 42.054 590.097 52.7932 563.649 70.3351C537.2 87.877 513.775 111.867 494.754 140.89C475.734 169.913 461.502 203.382 452.9 239.325C444.297 275.268 441.496 312.957 444.663 350.17L418.066 353.988Z" fill="#D9D9D9" stroke="white" stroke-width="46" mask="url(#path-2-inside-1_31_2)"/>
<path d="M68 349L68 809" stroke="white" stroke-width="23"/>
<line x1="131.5" y1="356" x2="131.5" y2="816" stroke="white" stroke-width="23"/>
<line x1="197.5" y1="356" x2="197.5" y2="816" stroke="white" stroke-width="23"/>
<line x1="257.5" y1="356" x2="257.5" y2="816" stroke="white" stroke-width="23"/>
<line x1="479.5" y1="350" x2="479.5" y2="810" stroke="white" stroke-width="23"/>
<line x1="319.5" y1="363" x2="319.5" y2="823" stroke="white" stroke-width="23"/>
<line x1="423.5" y1="363" x2="423.5" y2="823" stroke="white" stroke-width="23"/>
<line x1="369.5" y1="363" x2="369.5" y2="823" stroke="white" stroke-width="23"/>
<path d="M624.719 459.812V602H605.871V459.812H624.719ZM684.328 518.895V602H666.262V496.336H683.352L684.328 518.895ZM680.031 545.164L672.512 544.871C672.577 537.645 673.651 530.971 675.734 524.852C677.818 518.667 680.747 513.296 684.523 508.738C688.299 504.181 692.792 500.665 698 498.191C703.273 495.652 709.1 494.383 715.48 494.383C720.689 494.383 725.376 495.099 729.543 496.531C733.71 497.898 737.258 500.112 740.188 503.172C743.182 506.232 745.461 510.203 747.023 515.086C748.586 519.904 749.367 525.796 749.367 532.762V602H731.203V532.566C731.203 527.033 730.389 522.605 728.762 519.285C727.134 515.9 724.758 513.458 721.633 511.961C718.508 510.398 714.667 509.617 710.109 509.617C705.617 509.617 701.516 510.561 697.805 512.449C694.159 514.337 691.001 516.941 688.332 520.262C685.728 523.582 683.677 527.391 682.18 531.688C680.747 535.919 680.031 540.411 680.031 545.164ZM813.762 602H795.695V485.203C795.695 477.586 797.062 471.173 799.797 465.965C802.596 460.691 806.6 456.72 811.809 454.051C817.017 451.316 823.202 449.949 830.363 449.949C832.447 449.949 834.53 450.079 836.613 450.34C838.762 450.6 840.845 450.991 842.863 451.512L841.887 466.258C840.52 465.932 838.957 465.704 837.199 465.574C835.507 465.444 833.814 465.379 832.121 465.379C828.28 465.379 824.96 466.16 822.16 467.723C819.426 469.22 817.342 471.434 815.91 474.363C814.478 477.293 813.762 480.906 813.762 485.203V602ZM836.223 496.336V510.203H778.996V496.336H836.223ZM861.555 550.34V548.094C861.555 540.477 862.661 533.413 864.875 526.902C867.089 520.327 870.279 514.63 874.445 509.812C878.612 504.93 883.658 501.154 889.582 498.484C895.507 495.75 902.147 494.383 909.504 494.383C916.926 494.383 923.599 495.75 929.523 498.484C935.513 501.154 940.591 504.93 944.758 509.812C948.99 514.63 952.212 520.327 954.426 526.902C956.639 533.413 957.746 540.477 957.746 548.094V550.34C957.746 557.957 956.639 565.021 954.426 571.531C952.212 578.042 948.99 583.738 944.758 588.621C940.591 593.439 935.546 597.215 929.621 599.949C923.762 602.618 917.121 603.953 909.699 603.953C902.277 603.953 895.604 602.618 889.68 599.949C883.755 597.215 878.677 593.439 874.445 588.621C870.279 583.738 867.089 578.042 864.875 571.531C862.661 565.021 861.555 557.957 861.555 550.34ZM879.621 548.094V550.34C879.621 555.613 880.24 560.594 881.477 565.281C882.714 569.904 884.569 574.005 887.043 577.586C889.582 581.167 892.74 583.999 896.516 586.082C900.292 588.1 904.686 589.109 909.699 589.109C914.647 589.109 918.977 588.1 922.688 586.082C926.464 583.999 929.589 581.167 932.062 577.586C934.536 574.005 936.392 569.904 937.629 565.281C938.931 560.594 939.582 555.613 939.582 550.34V548.094C939.582 542.885 938.931 537.97 937.629 533.348C936.392 528.66 934.504 524.526 931.965 520.945C929.491 517.299 926.366 514.435 922.59 512.352C918.879 510.268 914.517 509.227 909.504 509.227C904.556 509.227 900.194 510.268 896.418 512.352C892.707 514.435 889.582 517.299 887.043 520.945C884.569 524.526 882.714 528.66 881.477 533.348C880.24 537.97 879.621 542.885 879.621 548.094ZM690.734 746.668V762H619.641V746.668H690.734ZM623.352 619.812V762H604.504V619.812H623.352ZM714.797 710.34V708.094C714.797 700.477 715.904 693.413 718.117 686.902C720.331 680.327 723.521 674.63 727.688 669.812C731.854 664.93 736.9 661.154 742.824 658.484C748.749 655.75 755.389 654.383 762.746 654.383C770.168 654.383 776.841 655.75 782.766 658.484C788.755 661.154 793.833 664.93 798 669.812C802.232 674.63 805.454 680.327 807.668 686.902C809.882 693.413 810.988 700.477 810.988 708.094V710.34C810.988 717.957 809.882 725.021 807.668 731.531C805.454 738.042 802.232 743.738 798 748.621C793.833 753.439 788.788 757.215 782.863 759.949C777.004 762.618 770.363 763.953 762.941 763.953C755.52 763.953 748.846 762.618 742.922 759.949C736.997 757.215 731.919 753.439 727.688 748.621C723.521 743.738 720.331 738.042 718.117 731.531C715.904 725.021 714.797 717.957 714.797 710.34ZM732.863 708.094V710.34C732.863 715.613 733.482 720.594 734.719 725.281C735.956 729.904 737.811 734.005 740.285 737.586C742.824 741.167 745.982 743.999 749.758 746.082C753.534 748.1 757.928 749.109 762.941 749.109C767.889 749.109 772.219 748.1 775.93 746.082C779.706 743.999 782.831 741.167 785.305 737.586C787.779 734.005 789.634 729.904 790.871 725.281C792.173 720.594 792.824 715.613 792.824 710.34V708.094C792.824 702.885 792.173 697.97 790.871 693.348C789.634 688.66 787.746 684.526 785.207 680.945C782.733 677.299 779.608 674.435 775.832 672.352C772.121 670.268 767.759 669.227 762.746 669.227C757.798 669.227 753.436 670.268 749.66 672.352C745.949 674.435 742.824 677.299 740.285 680.945C737.811 684.526 735.956 688.66 734.719 693.348C733.482 697.97 732.863 702.885 732.863 708.094ZM885.93 749.109C890.227 749.109 894.198 748.23 897.844 746.473C901.49 744.715 904.484 742.306 906.828 739.246C909.172 736.121 910.507 732.573 910.832 728.602H928.02C927.694 734.852 925.578 740.678 921.672 746.082C917.831 751.421 912.785 755.75 906.535 759.07C900.285 762.326 893.417 763.953 885.93 763.953C877.987 763.953 871.053 762.553 865.129 759.754C859.27 756.954 854.387 753.113 850.48 748.23C846.639 743.348 843.742 737.749 841.789 731.434C839.901 725.053 838.957 718.315 838.957 711.219V707.117C838.957 700.021 839.901 693.315 841.789 687C843.742 680.62 846.639 674.988 850.48 670.105C854.387 665.223 859.27 661.382 865.129 658.582C871.053 655.783 877.987 654.383 885.93 654.383C894.198 654.383 901.424 656.076 907.609 659.461C913.794 662.781 918.645 667.339 922.16 673.133C925.741 678.862 927.694 685.372 928.02 692.664H910.832C910.507 688.302 909.27 684.363 907.121 680.848C905.038 677.332 902.173 674.533 898.527 672.449C894.947 670.301 890.747 669.227 885.93 669.227C880.396 669.227 875.741 670.333 871.965 672.547C868.254 674.695 865.292 677.625 863.078 681.336C860.93 684.982 859.367 689.051 858.391 693.543C857.479 697.97 857.023 702.495 857.023 707.117V711.219C857.023 715.841 857.479 720.398 858.391 724.891C859.302 729.383 860.832 733.452 862.98 737.098C865.194 740.743 868.156 743.673 871.867 745.887C875.643 748.035 880.331 749.109 885.93 749.109ZM976.496 612V762H958.332V612H976.496ZM1041.05 656.336L994.953 705.652L969.172 732.41L967.707 713.172L986.164 691.102L1018.98 656.336H1041.05ZM1024.54 762L986.848 711.609L996.223 695.496L1045.83 762H1024.54ZM1111.59 763.953C1104.24 763.953 1097.56 762.716 1091.57 760.242C1085.65 757.703 1080.54 754.155 1076.24 749.598C1072.01 745.04 1068.76 739.637 1066.48 733.387C1064.2 727.137 1063.06 720.301 1063.06 712.879V708.777C1063.06 700.184 1064.33 692.534 1066.87 685.828C1069.41 679.057 1072.86 673.328 1077.22 668.641C1081.58 663.953 1086.53 660.405 1092.06 657.996C1097.6 655.587 1103.33 654.383 1109.25 654.383C1116.8 654.383 1123.31 655.685 1128.78 658.289C1134.32 660.893 1138.84 664.539 1142.36 669.227C1145.87 673.849 1148.48 679.318 1150.17 685.633C1151.86 691.883 1152.71 698.719 1152.71 706.141V714.246H1073.8V699.5H1134.64V698.133C1134.38 693.445 1133.4 688.888 1131.71 684.461C1130.08 680.034 1127.48 676.388 1123.9 673.523C1120.32 670.659 1115.43 669.227 1109.25 669.227C1105.15 669.227 1101.37 670.105 1097.92 671.863C1094.47 673.556 1091.51 676.095 1089.04 679.48C1086.56 682.866 1084.64 687 1083.27 691.883C1081.91 696.766 1081.22 702.397 1081.22 708.777V712.879C1081.22 717.892 1081.91 722.612 1083.27 727.039C1084.71 731.401 1086.76 735.242 1089.43 738.562C1092.16 741.883 1095.45 744.487 1099.29 746.375C1103.2 748.263 1107.62 749.207 1112.57 749.207C1118.95 749.207 1124.35 747.905 1128.78 745.301C1133.21 742.697 1137.08 739.214 1140.4 734.852L1151.34 743.543C1149.06 746.993 1146.16 750.281 1142.65 753.406C1139.13 756.531 1134.8 759.07 1129.66 761.023C1124.58 762.977 1118.56 763.953 1111.59 763.953ZM1201.87 672.938V762H1183.8V656.336H1201.38L1201.87 672.938ZM1234.88 655.75L1234.78 672.547C1233.28 672.221 1231.85 672.026 1230.48 671.961C1229.18 671.831 1227.68 671.766 1225.99 671.766C1221.82 671.766 1218.14 672.417 1214.95 673.719C1211.76 675.021 1209.06 676.844 1206.85 679.188C1204.63 681.531 1202.88 684.331 1201.57 687.586C1200.34 690.776 1199.52 694.292 1199.13 698.133L1194.05 701.062C1194.05 694.682 1194.67 688.693 1195.91 683.094C1197.21 677.495 1199.2 672.547 1201.87 668.25C1204.54 663.888 1207.92 660.503 1212.02 658.094C1216.19 655.62 1221.14 654.383 1226.87 654.383C1228.17 654.383 1229.67 654.546 1231.36 654.871C1233.05 655.132 1234.22 655.424 1234.88 655.75Z" fill="white"/>
</svg>
